# xmcd
#
# Track frame offsets: 
#        150
#        20057
#        43082
#        61535
#        82010
#        102915
#        117342
#        129687
#        148205
#        166380
#        182522
#
# Disc length: 2802 seconds
#
# Revision: 2
# Processed by: cddbd v1.5.2PL0 Copyright (c) Steve Scherf et al.
# Submitted via: ExactAudioCopy v1.0b3
#
DISCID=980af00b
DTITLE=费玉清 - 唱一遍一遍
DYEAR=2011
DGENRE=Vocal
TTITLE0=唱一遍一遍
TTITLE1=传奇
TTITLE2=偏爱水中月
TTITLE3=倾国倾城
TTITLE4=忘不了
TTITLE5=苏三采茶
TTITLE6=三部情曲
TTITLE7=舍不得把眼睛睁开
TTITLE8=玫瑰寄情
TTITLE9=幸福在这里
TTITLE10=传奇三部曲
EXTD=
EXTT0=
EXTT1=
EXTT2=
EXTT3=
EXTT4=
EXTT5=
EXTT6=
EXTT7=
EXTT8=
EXTT9=
EXTT10=傳奇+忘不了+捨不得把眼睛睜開
PLAYORDER=
